<?xml version="1.0" encoding="UTF-8" standalone="no"?>
<!DOCTYPE svg PUBLIC "-//W3C//DTD SVG 1.1//EN" "http://www.w3.org/Graphics/SVG/1.1/DTD/svg11.dtd">
<svg width="100%" height="100%" viewBox="0 0 512 512" version="1.1" xmlns="http://www.w3.org/2000/svg" xmlns:xlink="http://www.w3.org/1999/xlink" xml:space="preserve" xmlns:serif="http://www.serif.com/" style="fill-rule:evenodd;clip-rule:evenodd;stroke-linejoin:round;stroke-miterlimit:2;">
    <path d="M162.133,230.398L349.867,230.398C359.293,230.398 366.934,238.039 366.934,247.465L366.934,401.066C366.934,410.492 359.293,418.133 349.867,418.133L162.133,418.133C152.707,418.133 145.066,410.492 145.066,401.066L145.066,247.465C145.066,238.039 152.707,230.398 162.133,230.398Z" style="fill:rgb(255,152,1);fill-rule:nonzero;"/>
    <path d="M162.133,230.398L324.266,230.398C333.691,230.398 341.332,238.039 341.332,247.465L341.332,401.066C341.332,410.492 333.691,418.133 324.266,418.133L162.133,418.133C152.707,418.133 145.066,410.492 145.066,401.066L145.066,247.465C145.066,238.039 152.707,230.398 162.133,230.398Z" style="fill:rgb(254,193,8);fill-rule:nonzero;"/>
    <path d="M285.191,310.34C284.965,295.414 273.527,283.055 258.664,281.676C243.801,280.297 230.285,290.336 227.312,304.965C225.75,313.566 228.293,322.402 234.187,328.859C237.148,332.063 238.832,336.238 238.934,340.598L238.934,367C238.934,371.676 242.723,375.465 247.398,375.465L264.602,375.465C266.848,375.465 269,374.574 270.586,372.988C272.176,371.398 273.066,369.246 273.066,367L273.066,340.48C273.164,336.121 274.863,331.953 277.836,328.766C282.457,323.727 285.074,317.176 285.191,310.34Z" style="fill:rgb(55,71,79);fill-rule:nonzero;"/>
    <path d="M307.199,230.398L307.199,177.73C307.199,149.457 284.277,126.531 256,126.531C227.723,126.531 204.801,149.457 204.801,177.73L204.801,230.398L170.668,230.398L170.668,177.73C170.668,130.605 208.871,92.398 256,92.398C303.129,92.398 341.332,130.605 341.332,177.73L341.332,230.398L307.199,230.398Z" style="fill:rgb(96,125,139);fill-rule:nonzero;"/>
    <path d="M341.332,177.75L341.332,230.398L315.734,230.398L315.734,177.75C315.434,136.016 284.68,100.762 243.371,94.805C247.551,94.191 251.773,93.875 256,93.867C302.723,93.473 340.926,131.023 341.332,177.75Z" style="fill:rgb(55,71,79);fill-rule:nonzero;"/>
    <path d="M349.867,426.668L162.133,426.668C147.996,426.668 136.535,415.207 136.535,401.066L136.535,247.465C136.535,233.328 147.996,221.867 162.133,221.867L349.867,221.867C364.004,221.867 375.465,233.328 375.465,247.465L375.465,401.066C375.465,415.207 364.004,426.668 349.867,426.668ZM162.133,238.934C157.422,238.934 153.602,242.754 153.602,247.465L153.602,401.066C153.602,405.781 157.422,409.602 162.133,409.602L349.867,409.602C354.578,409.602 358.398,405.781 358.398,401.066L358.398,247.465C358.398,242.754 354.578,238.934 349.867,238.934L162.133,238.934Z" style="fill-rule:nonzero;"/>
    <path d="M366.934,290.133L324.266,290.133C319.555,290.133 315.734,286.313 315.734,281.602C315.734,276.887 319.555,273.066 324.266,273.066L366.934,273.066C371.645,273.066 375.465,276.887 375.465,281.602C375.465,286.313 371.645,290.133 366.934,290.133Z" style="fill-rule:nonzero;"/>
    <path d="M366.934,332.801L324.266,332.801C319.555,332.801 315.734,328.98 315.734,324.266C315.734,319.555 319.555,315.734 324.266,315.734L366.934,315.734C371.645,315.734 375.465,319.555 375.465,324.266C375.465,328.98 371.645,332.801 366.934,332.801Z" style="fill-rule:nonzero;"/>
    <path d="M366.934,384L324.266,384C319.555,384 315.734,380.18 315.734,375.465C315.734,370.754 319.555,366.934 324.266,366.934L366.934,366.934C371.645,366.934 375.465,370.754 375.465,375.465C375.465,380.18 371.645,384 366.934,384Z" style="fill-rule:nonzero;"/>
    <path d="M187.734,290.133L145.066,290.133C140.355,290.133 136.535,286.313 136.535,281.602C136.535,276.887 140.355,273.066 145.066,273.066L187.734,273.066C192.445,273.066 196.266,276.887 196.266,281.602C196.266,286.313 192.445,290.133 187.734,290.133Z" style="fill-rule:nonzero;"/>
    <path d="M187.734,332.801L145.066,332.801C140.355,332.801 136.535,328.98 136.535,324.266C136.535,319.555 140.355,315.734 145.066,315.734L187.734,315.734C192.445,315.734 196.266,319.555 196.266,324.266C196.266,328.98 192.445,332.801 187.734,332.801Z" style="fill-rule:nonzero;"/>
    <path d="M187.734,384L145.066,384C140.355,384 136.535,380.18 136.535,375.465C136.535,370.754 140.355,366.934 145.066,366.934L187.734,366.934C192.445,366.934 196.266,370.754 196.266,375.465C196.266,380.18 192.445,384 187.734,384Z" style="fill-rule:nonzero;"/>
    <path d="M264.602,384L247.398,384C238.027,383.961 230.438,376.375 230.398,367L230.398,340.609C230.293,338.309 229.363,336.125 227.781,334.457C220.188,326.031 216.918,314.566 218.922,303.402C221.793,288.594 233.27,276.953 248.039,273.879C259.316,271.512 271.059,274.348 280.012,281.602C288.684,288.621 293.723,299.184 293.727,310.34C293.613,319.27 290.234,327.848 284.227,334.457C282.66,336.082 281.727,338.223 281.602,340.48L281.602,366.934C281.602,376.332 274,383.961 264.602,384ZM256.066,290.133C254.523,290.137 252.98,290.293 251.469,290.602C243.523,292.316 237.344,298.563 235.715,306.527C234.672,312.535 236.477,318.688 240.605,323.176C244.934,327.961 247.375,334.156 247.465,340.609L247.465,367L264.602,366.934L264.535,340.48C264.641,334.039 267.102,327.859 271.453,323.105C274.688,319.613 276.539,315.063 276.66,310.305C276.652,304.277 273.922,298.57 269.227,294.785C265.508,291.75 260.852,290.105 256.051,290.133L256.066,290.133Z" style="fill-rule:nonzero;"/>
    <path d="M349.867,238.934L298.668,238.934L298.668,177.73C298.668,154.168 279.563,135.066 256,135.066C232.437,135.066 213.332,154.168 213.332,177.73L213.332,238.934L162.133,238.934L162.133,177.73C162.133,125.891 204.16,83.867 256,83.867C307.84,83.867 349.867,125.891 349.867,177.73L349.867,238.934ZM315.734,221.867L332.801,221.867L332.801,177.73C332.801,135.316 298.414,100.934 256,100.934C213.586,100.934 179.199,135.316 179.199,177.73L179.199,221.867L196.266,221.867L196.266,177.73C196.266,144.742 223.012,118 256,118C288.988,118 315.734,144.742 315.734,177.73L315.734,221.867Z" style="fill-rule:nonzero;"/>
    <path d="M401.066,153.602C396.355,153.602 392.535,149.781 392.535,145.066L392.535,93.867C392.535,89.152 396.355,85.332 401.066,85.332C405.781,85.332 409.602,89.152 409.602,93.867L409.602,145.066C409.602,149.781 405.781,153.602 401.066,153.602Z" style="fill-rule:nonzero;"/>
    <path d="M366.934,153.602C362.219,153.602 358.398,149.781 358.398,145.066L358.398,93.867C358.398,89.152 362.219,85.332 366.934,85.332C371.645,85.332 375.465,89.152 375.465,93.867L375.465,145.066C375.465,149.781 371.645,153.602 366.934,153.602Z" style="fill-rule:nonzero;"/>
    <path d="M435.199,153.602C430.488,153.602 426.668,149.781 426.668,145.066L426.668,93.867C426.668,89.152 430.488,85.332 435.199,85.332C439.914,85.332 443.734,89.152 443.734,93.867L443.734,145.066C443.734,149.781 439.914,153.602 435.199,153.602Z" style="fill-rule:nonzero;"/>
    <path d="M401.066,332.801C396.355,332.801 392.535,328.98 392.535,324.266L392.535,273.066C392.535,268.355 396.355,264.535 401.066,264.535C405.781,264.535 409.602,268.355 409.602,273.066L409.602,324.266C409.602,328.98 405.781,332.801 401.066,332.801Z" style="fill-rule:nonzero;"/>
    <path d="M452.266,332.801C447.555,332.801 443.734,328.98 443.734,324.266L443.734,273.066C443.734,268.355 447.555,264.535 452.266,264.535C456.98,264.535 460.801,268.355 460.801,273.066L460.801,324.266C460.801,328.98 456.98,332.801 452.266,332.801Z" style="fill-rule:nonzero;"/>
    <path d="M503.465,332.801C498.754,332.801 494.934,328.98 494.934,324.266L494.934,273.066C494.934,268.355 498.754,264.535 503.465,264.535C508.18,264.535 512,268.355 512,273.066L512,324.266C512,328.98 508.18,332.801 503.465,332.801Z" style="fill-rule:nonzero;"/>
    <path d="M494.934,153.602L477.867,153.602C468.441,153.602 460.801,145.961 460.801,136.535L460.801,102.398C460.801,92.973 468.441,85.332 477.867,85.332L494.934,85.332C504.359,85.332 512,92.973 512,102.398L512,136.535C512,145.961 504.359,153.602 494.934,153.602ZM477.867,102.398L477.867,136.535L494.934,136.535L494.934,102.398L477.867,102.398Z" style="fill-rule:nonzero;"/>
    <path d="M503.465,247.465C498.754,247.465 494.934,243.645 494.934,238.934L494.934,187.734C494.934,183.02 498.754,179.199 503.465,179.199C508.18,179.199 512,183.02 512,187.734L512,238.934C512,243.645 508.18,247.465 503.465,247.465Z" style="fill-rule:nonzero;"/>
    <path d="M469.332,247.465C464.621,247.465 460.801,243.645 460.801,238.934L460.801,187.734C460.801,183.02 464.621,179.199 469.332,179.199C474.047,179.199 477.867,183.02 477.867,187.734L477.867,238.934C477.867,243.645 474.047,247.465 469.332,247.465Z" style="fill-rule:nonzero;"/>
    <path d="M426.668,247.465L409.602,247.465C400.176,247.465 392.535,239.824 392.535,230.398L392.535,196.266C392.535,186.84 400.176,179.199 409.602,179.199L426.668,179.199C436.094,179.199 443.734,186.84 443.734,196.266L443.734,230.398C443.734,239.824 436.094,247.465 426.668,247.465ZM409.602,196.266L409.602,230.398L426.668,230.398L426.668,196.266L409.602,196.266Z" style="fill-rule:nonzero;"/>
    <path d="M401.066,426.668C396.355,426.668 392.535,422.848 392.535,418.133L392.535,366.934C392.535,362.219 396.355,358.398 401.066,358.398C405.781,358.398 409.602,362.219 409.602,366.934L409.602,418.133C409.602,422.848 405.781,426.668 401.066,426.668Z" style="fill-rule:nonzero;"/>
    <path d="M435.199,426.668C430.488,426.668 426.668,422.848 426.668,418.133L426.668,366.934C426.668,362.219 430.488,358.398 435.199,358.398C439.914,358.398 443.734,362.219 443.734,366.934L443.734,418.133C443.734,422.848 439.914,426.668 435.199,426.668Z" style="fill-rule:nonzero;"/>
    <path d="M494.934,426.668L477.867,426.668C468.441,426.668 460.801,419.027 460.801,409.602L460.801,375.465C460.801,366.039 468.441,358.398 477.867,358.398L494.934,358.398C504.359,358.398 512,366.039 512,375.465L512,409.602C512,419.027 504.359,426.668 494.934,426.668ZM477.867,375.465L477.867,409.602L494.934,409.602L494.934,375.465L477.867,375.465Z" style="fill-rule:nonzero;"/>
    <path d="M110.934,153.602C106.219,153.602 102.398,149.781 102.398,145.066L102.398,93.867C102.398,89.152 106.219,85.332 110.934,85.332C115.645,85.332 119.465,89.152 119.465,93.867L119.465,145.066C119.465,149.781 115.645,153.602 110.934,153.602Z" style="fill-rule:nonzero;"/>
    <path d="M145.066,153.602C140.355,153.602 136.535,149.781 136.535,145.066L136.535,93.867C136.535,89.152 140.355,85.332 145.066,85.332C149.781,85.332 153.602,89.152 153.602,93.867L153.602,145.066C153.602,149.781 149.781,153.602 145.066,153.602Z" style="fill-rule:nonzero;"/>
    <path d="M76.801,153.602C72.086,153.602 68.266,149.781 68.266,145.066L68.266,93.867C68.266,89.152 72.086,85.332 76.801,85.332C81.512,85.332 85.332,89.152 85.332,93.867L85.332,145.066C85.332,149.781 81.512,153.602 76.801,153.602Z" style="fill-rule:nonzero;"/>
    <path d="M110.934,332.801C106.219,332.801 102.398,328.98 102.398,324.266L102.398,273.066C102.398,268.355 106.219,264.535 110.934,264.535C115.645,264.535 119.465,268.355 119.465,273.066L119.465,324.266C119.465,328.98 115.645,332.801 110.934,332.801Z" style="fill-rule:nonzero;"/>
    <path d="M59.734,332.801C55.02,332.801 51.199,328.98 51.199,324.266L51.199,273.066C51.199,268.355 55.02,264.535 59.734,264.535C64.445,264.535 68.266,268.355 68.266,273.066L68.266,324.266C68.266,328.98 64.445,332.801 59.734,332.801Z" style="fill-rule:nonzero;"/>
    <path d="M8.535,332.801C3.82,332.801 0,328.98 0,324.266L0,273.066C0,268.355 3.82,264.535 8.535,264.535C13.246,264.535 17.066,268.355 17.066,273.066L17.066,324.266C17.066,328.98 13.246,332.801 8.535,332.801Z" style="fill-rule:nonzero;"/>
    <path d="M34.133,153.602L17.066,153.602C7.641,153.602 0,145.961 0,136.535L0,102.398C0,92.973 7.641,85.332 17.066,85.332L34.133,85.332C43.559,85.332 51.199,92.973 51.199,102.398L51.199,136.535C51.199,145.961 43.559,153.602 34.133,153.602ZM17.066,102.398L17.066,136.535L34.133,136.535L34.133,102.398L17.066,102.398Z" style="fill-rule:nonzero;"/>
    <path d="M8.535,247.465C3.82,247.465 0,243.645 0,238.934L0,187.734C0,183.02 3.82,179.199 8.535,179.199C13.246,179.199 17.066,183.02 17.066,187.734L17.066,238.934C17.066,243.645 13.246,247.465 8.535,247.465Z" style="fill-rule:nonzero;"/>
    <path d="M42.668,247.465C37.953,247.465 34.133,243.645 34.133,238.934L34.133,187.734C34.133,183.02 37.953,179.199 42.668,179.199C47.379,179.199 51.199,183.02 51.199,187.734L51.199,238.934C51.199,243.645 47.379,247.465 42.668,247.465Z" style="fill-rule:nonzero;"/>
    <path d="M102.398,247.465L85.332,247.465C75.906,247.465 68.266,239.824 68.266,230.398L68.266,196.266C68.266,186.84 75.906,179.199 85.332,179.199L102.398,179.199C111.824,179.199 119.465,186.84 119.465,196.266L119.465,230.398C119.465,239.824 111.824,247.465 102.398,247.465ZM85.332,196.266L85.332,230.398L102.398,230.398L102.398,196.266L85.332,196.266Z" style="fill-rule:nonzero;"/>
    <path d="M110.934,426.668C106.219,426.668 102.398,422.848 102.398,418.133L102.398,366.934C102.398,362.219 106.219,358.398 110.934,358.398C115.645,358.398 119.465,362.219 119.465,366.934L119.465,418.133C119.465,422.848 115.645,426.668 110.934,426.668Z" style="fill-rule:nonzero;"/>
    <path d="M76.801,426.668C72.086,426.668 68.266,422.848 68.266,418.133L68.266,366.934C68.266,362.219 72.086,358.398 76.801,358.398C81.512,358.398 85.332,362.219 85.332,366.934L85.332,418.133C85.332,422.848 81.512,426.668 76.801,426.668Z" style="fill-rule:nonzero;"/>
    <path d="M34.133,426.668L17.066,426.668C7.641,426.668 0,419.027 0,409.602L0,375.465C0,366.039 7.641,358.398 17.066,358.398L34.133,358.398C43.559,358.398 51.199,366.039 51.199,375.465L51.199,409.602C51.199,419.027 43.559,426.668 34.133,426.668ZM17.066,375.465L17.066,409.602L34.133,409.602L34.133,375.465L17.066,375.465Z" style="fill-rule:nonzero;"/>
    <path d="M494.934,68.266C490.219,68.266 486.398,64.445 486.398,59.734L486.398,8.535C486.398,3.82 490.219,0 494.934,0C499.645,0 503.465,3.82 503.465,8.535L503.465,59.734C503.465,64.445 499.645,68.266 494.934,68.266Z" style="fill-rule:nonzero;"/>
    <path d="M460.801,68.266C456.086,68.266 452.266,64.445 452.266,59.734L452.266,8.535C452.266,3.82 456.086,0 460.801,0C465.512,0 469.332,3.82 469.332,8.535L469.332,59.734C469.332,64.445 465.512,68.266 460.801,68.266Z" style="fill-rule:nonzero;"/>
    <path d="M358.398,68.266C353.688,68.266 349.867,64.445 349.867,59.734L349.867,8.535C349.867,3.82 353.688,0 358.398,0C363.113,0 366.934,3.82 366.934,8.535L366.934,59.734C366.934,64.445 363.113,68.266 358.398,68.266Z" style="fill-rule:nonzero;"/>
    <path d="M358.398,68.266C353.688,68.266 349.867,64.445 349.867,59.734L349.867,8.535C349.867,3.82 353.688,0 358.398,0C363.113,0 366.934,3.82 366.934,8.535L366.934,59.734C366.934,64.445 363.113,68.266 358.398,68.266Z" style="fill-rule:nonzero;"/>
    <path d="M256,68.266C251.289,68.266 247.465,64.445 247.465,59.734L247.465,8.535C247.465,3.82 251.289,0 256,0C260.711,0 264.535,3.82 264.535,8.535L264.535,59.734C264.535,64.445 260.711,68.266 256,68.266Z" style="fill-rule:nonzero;"/>
    <path d="M418.133,68.266L401.066,68.266C391.641,68.266 384,60.625 384,51.199L384,17.066C384,7.641 391.641,0 401.066,0L418.133,0C427.559,0 435.199,7.641 435.199,17.066L435.199,51.199C435.199,60.625 427.559,68.266 418.133,68.266ZM401.066,17.066L401.066,51.199L418.133,51.199L418.133,17.066L401.066,17.066Z" style="fill-rule:nonzero;"/>
    <path d="M315.734,68.266L298.668,68.266C289.242,68.266 281.602,60.625 281.602,51.199L281.602,17.066C281.602,7.641 289.242,0 298.668,0L315.734,0C325.16,0 332.801,7.641 332.801,17.066L332.801,51.199C332.801,60.625 325.16,68.266 315.734,68.266ZM298.668,17.066L298.668,51.199L315.734,51.199L315.734,17.066L298.668,17.066Z" style="fill-rule:nonzero;"/>
    <path d="M256,68.266C251.289,68.266 247.465,64.445 247.465,59.734L247.465,8.535C247.465,3.82 251.289,0 256,0C260.711,0 264.535,3.82 264.535,8.535L264.535,59.734C264.535,64.445 260.711,68.266 256,68.266Z" style="fill-rule:nonzero;"/>
    <path d="M221.867,68.266C217.152,68.266 213.332,64.445 213.332,59.734L213.332,8.535C213.332,3.82 217.152,0 221.867,0C226.578,0 230.398,3.82 230.398,8.535L230.398,59.734C230.398,64.445 226.578,68.266 221.867,68.266Z" style="fill-rule:nonzero;"/>
    <path d="M17.066,68.266C12.355,68.266 8.535,64.445 8.535,59.734L8.535,8.535C8.535,3.82 12.355,0 17.066,0C21.781,0 25.602,3.82 25.602,8.535L25.602,59.734C25.602,64.445 21.781,68.266 17.066,68.266Z" style="fill-rule:nonzero;"/>
    <path d="M17.066,68.266C12.355,68.266 8.535,64.445 8.535,59.734L8.535,8.535C8.535,3.82 12.355,0 17.066,0C21.781,0 25.602,3.82 25.602,8.535L25.602,59.734C25.602,64.445 21.781,68.266 17.066,68.266Z" style="fill-rule:nonzero;"/>
    <path d="M119.465,68.266C114.754,68.266 110.934,64.445 110.934,59.734L110.934,8.535C110.934,3.82 114.754,0 119.465,0C124.18,0 128,3.82 128,8.535L128,59.734C128,64.445 124.18,68.266 119.465,68.266Z" style="fill-rule:nonzero;"/>
    <path d="M119.465,68.266C114.754,68.266 110.934,64.445 110.934,59.734L110.934,8.535C110.934,3.82 114.754,0 119.465,0C124.18,0 128,3.82 128,8.535L128,59.734C128,64.445 124.18,68.266 119.465,68.266Z" style="fill-rule:nonzero;"/>
    <path d="M179.199,68.266L162.133,68.266C152.707,68.266 145.066,60.625 145.066,51.199L145.066,17.066C145.066,7.641 152.707,0 162.133,0L179.199,0C188.625,0 196.266,7.641 196.266,17.066L196.266,51.199C196.266,60.625 188.625,68.266 179.199,68.266ZM162.133,17.066L162.133,51.199L179.199,51.199L179.199,17.066L162.133,17.066Z" style="fill-rule:nonzero;"/>
    <path d="M76.801,68.266L59.734,68.266C50.309,68.266 42.668,60.625 42.668,51.199L42.668,17.066C42.668,7.641 50.309,0 59.734,0L76.801,0C86.227,0 93.867,7.641 93.867,17.066L93.867,51.199C93.867,60.625 86.227,68.266 76.801,68.266ZM59.734,17.066L59.734,51.199L76.801,51.199L76.801,17.066L59.734,17.066Z" style="fill-rule:nonzero;"/>
    <path d="M17.066,512C12.355,512 8.535,508.18 8.535,503.465L8.535,452.266C8.535,447.555 12.355,443.734 17.066,443.734C21.781,443.734 25.602,447.555 25.602,452.266L25.602,503.465C25.602,508.18 21.781,512 17.066,512Z" style="fill-rule:nonzero;"/>
    <path d="M51.199,512C46.488,512 42.668,508.18 42.668,503.465L42.668,452.266C42.668,447.555 46.488,443.734 51.199,443.734C55.914,443.734 59.734,447.555 59.734,452.266L59.734,503.465C59.734,508.18 55.914,512 51.199,512Z" style="fill-rule:nonzero;"/>
    <path d="M153.602,512C148.887,512 145.066,508.18 145.066,503.465L145.066,452.266C145.066,447.555 148.887,443.734 153.602,443.734C158.313,443.734 162.133,447.555 162.133,452.266L162.133,503.465C162.133,508.18 158.313,512 153.602,512Z" style="fill-rule:nonzero;"/>
    <path d="M153.602,512C148.887,512 145.066,508.18 145.066,503.465L145.066,452.266C145.066,447.555 148.887,443.734 153.602,443.734C158.313,443.734 162.133,447.555 162.133,452.266L162.133,503.465C162.133,508.18 158.313,512 153.602,512Z" style="fill-rule:nonzero;"/>
    <path d="M256,512C251.289,512 247.465,508.18 247.465,503.465L247.465,452.266C247.465,447.555 251.289,443.734 256,443.734C260.711,443.734 264.535,447.555 264.535,452.266L264.535,503.465C264.535,508.18 260.711,512 256,512Z" style="fill-rule:nonzero;"/>
    <path d="M110.934,512L93.867,512C84.441,512 76.801,504.359 76.801,494.934L76.801,460.801C76.801,451.375 84.441,443.734 93.867,443.734L110.934,443.734C120.359,443.734 128,451.375 128,460.801L128,494.934C128,504.359 120.359,512 110.934,512ZM93.867,460.801L93.867,494.934L110.934,494.934L110.934,460.801L93.867,460.801Z" style="fill-rule:nonzero;"/>
    <path d="M213.332,512L196.266,512C186.84,512 179.199,504.359 179.199,494.934L179.199,460.801C179.199,451.375 186.84,443.734 196.266,443.734L213.332,443.734C222.758,443.734 230.398,451.375 230.398,460.801L230.398,494.934C230.398,504.359 222.758,512 213.332,512ZM196.266,460.801L196.266,494.934L213.332,494.934L213.332,460.801L196.266,460.801Z" style="fill-rule:nonzero;"/>
    <path d="M256,512C251.289,512 247.465,508.18 247.465,503.465L247.465,452.266C247.465,447.555 251.289,443.734 256,443.734C260.711,443.734 264.535,447.555 264.535,452.266L264.535,503.465C264.535,508.18 260.711,512 256,512Z" style="fill-rule:nonzero;"/>
    <path d="M290.133,512C285.422,512 281.602,508.18 281.602,503.465L281.602,452.266C281.602,447.555 285.422,443.734 290.133,443.734C294.848,443.734 298.668,447.555 298.668,452.266L298.668,503.465C298.668,508.18 294.848,512 290.133,512Z" style="fill-rule:nonzero;"/>
    <path d="M494.934,512C490.219,512 486.398,508.18 486.398,503.465L486.398,452.266C486.398,447.555 490.219,443.734 494.934,443.734C499.645,443.734 503.465,447.555 503.465,452.266L503.465,503.465C503.465,508.18 499.645,512 494.934,512Z" style="fill-rule:nonzero;"/>
    <path d="M494.934,512C490.219,512 486.398,508.18 486.398,503.465L486.398,452.266C486.398,447.555 490.219,443.734 494.934,443.734C499.645,443.734 503.465,447.555 503.465,452.266L503.465,503.465C503.465,508.18 499.645,512 494.934,512Z" style="fill-rule:nonzero;"/>
    <path d="M392.535,512C387.82,512 384,508.18 384,503.465L384,452.266C384,447.555 387.82,443.734 392.535,443.734C397.246,443.734 401.066,447.555 401.066,452.266L401.066,503.465C401.066,508.18 397.246,512 392.535,512Z" style="fill-rule:nonzero;"/>
    <path d="M392.535,512C387.82,512 384,508.18 384,503.465L384,452.266C384,447.555 387.82,443.734 392.535,443.734C397.246,443.734 401.066,447.555 401.066,452.266L401.066,503.465C401.066,508.18 397.246,512 392.535,512Z" style="fill-rule:nonzero;"/>
    <path d="M349.867,512L332.801,512C323.375,512 315.734,504.359 315.734,494.934L315.734,460.801C315.734,451.375 323.375,443.734 332.801,443.734L349.867,443.734C359.293,443.734 366.934,451.375 366.934,460.801L366.934,494.934C366.934,504.359 359.293,512 349.867,512ZM332.801,460.801L332.801,494.934L349.867,494.934L349.867,460.801L332.801,460.801Z" style="fill-rule:nonzero;"/>
    <path d="M452.266,512L435.199,512C425.773,512 418.133,504.359 418.133,494.934L418.133,460.801C418.133,451.375 425.773,443.734 435.199,443.734L452.266,443.734C461.691,443.734 469.332,451.375 469.332,460.801L469.332,494.934C469.332,504.359 461.691,512 452.266,512ZM435.199,460.801L435.199,494.934L452.266,494.934L452.266,460.801L435.199,460.801Z" style="fill-rule:nonzero;"/>
</svg>
